<svg width="330" height="100" viewBox="0 0 330 100" fill="none" xmlns="http://www.w3.org/2000/svg">
<g clip-path="url(#clip0_109_29)">
<path d="M3.74219 100H21.9219C21.9219 54.8828 58.625 18.1797 103.742 18.1797V0C48.6094 0 3.74219 44.8672 3.74219 100Z" fill="white"/>
<path d="M35.5625 100H53.7422C53.7422 72.4297 76.1719 50 103.742 50V31.8203C66.0859 31.8203 35.5625 62.3438 35.5625 100Z" fill="white"/>
<path d="M103.742 18.1797H0.109375L9.20312 0H103.742V18.1797Z" fill="white"/>
<path d="M103.743 87.145L90.8883 74.29L78.0333 87.145L90.8883 100L103.743 87.145Z" fill="#ACC2EE"/>
<path d="M140.539 0.835938H145.594V16.7344C145.594 18.8438 145.406 20.4453 145.031 21.5391C144.539 22.9922 143.648 24.1563 142.367 25.0469C141.078 25.9375 139.383 26.3828 137.281 26.3828C134.805 26.3828 132.898 25.6953 131.562 24.3125C130.227 22.9297 129.547 20.8984 129.531 18.2031L134.336 17.6406C134.383 19.0938 134.594 20.1094 134.969 20.6953C135.508 21.6094 136.336 22.0625 137.461 22.0625C138.586 22.0625 139.375 21.7422 139.844 21.1016C140.312 20.4609 140.547 19.1172 140.547 17.0859V0.835938H140.539Z" fill="white"/>
<path d="M175.906 26.3125H170.398L168.187 20.5938H158.148L156.078 26.3125H150.711L160.508 1.1875H165.875L175.914 26.3125H175.906ZM166.609 16.3828L163.102 7.04688L159.734 16.3828H166.609Z" fill="white"/>
<path d="M205.07 26.3125H200.367V6.52344L195.383 26.3125H190.469L185.523 6.55469V26.3125H180.82V1.1875H188.398L192.961 18.3438L197.453 1.1875H205.07V26.3125Z" fill="white"/>
<path d="M212.055 26.3125V1.1875H217.141V26.3125H212.055Z" fill="white"/>
<path d="M246.898 26.3125H241.391L239.18 20.5938H229.141L227.07 26.3125H221.703L231.492 1.1875H236.859L246.898 26.3125ZM237.594 16.3828L234.086 7.04688L230.719 16.3828H237.594Z" fill="white"/>
<path d="M154.289 61.8828H148.781L146.57 56.1641H136.531L134.461 61.8828H129.094L138.883 36.7578H144.25L154.289 61.8828ZM144.992 51.9531L141.484 42.6172L138.117 51.9531H144.992Z" fill="white"/>
<path d="M167.836 61.8828H159.273V36.7578H169.313C171.297 36.7578 172.789 36.8438 173.766 37.0234C174.75 37.1953 175.617 37.5469 176.383 38.0625C177.141 38.5781 177.789 39.2734 178.313 40.1484C178.836 41.0234 179.102 42 179.102 43.0781C179.102 44.2734 178.789 45.3594 178.156 46.3438C177.523 47.3281 176.656 48.0625 175.563 48.5547C177.109 48.9766 178.289 49.7266 179.109 50.8203C179.93 51.9063 180.336 53.1641 180.336 54.5937C180.336 55.7422 180.07 56.8594 179.547 57.9453C179.023 59.0312 178.297 59.8984 177.375 60.5391C176.453 61.1797 175.313 61.5781 173.953 61.7109C173.133 61.8047 171.102 61.8594 167.852 61.8828H167.836ZM167.695 46.7578C169.664 46.7578 170.891 46.7266 171.383 46.6563C172.227 46.5625 172.898 46.2734 173.398 45.7812C173.898 45.2891 174.156 44.6328 174.156 43.8125C174.156 43.0391 173.938 42.4063 173.508 41.9141C173.078 41.4219 172.438 41.1328 171.594 41.0391C171.078 40.9687 168.672 40.9375 164.367 40.9375V46.7656H167.703L167.695 46.7578ZM169.062 57.6328C170.891 57.6328 172.047 57.5859 172.539 57.4922C173.289 57.3516 173.898 57.0156 174.367 56.4922C174.836 55.9687 175.07 55.2578 175.07 54.3672C175.07 53.5937 174.898 52.9453 174.547 52.4219C174.195 51.8984 173.672 51.5156 172.969 51.2812C172.266 51.0469 170.758 50.9297 168.445 50.9297H164.375V57.6328H169.078H169.062Z" fill="white"/>
<path d="M186.539 61.8828V36.7578H191.625V61.8828H186.539Z" fill="white"/>
<path d="M131.484 97.4531V72.3281H136.57V82.2266H146.5V72.3281H151.586V97.4531H146.5V86.4687H136.57V97.4531H131.484Z" fill="white"/>
<path d="M169.203 97.5234C163.516 97.5234 160.242 95.5937 159.375 91.7344C159.047 90.3047 158.883 88.1875 158.883 85.3828V71.9766H163.938V85.5937C163.938 87.75 164.008 89.1484 164.148 89.8047C164.359 90.8125 164.867 91.6328 165.672 92.2578C166.477 92.8906 167.594 93.2031 169.023 93.2031C170.453 93.2031 171.57 92.9141 172.305 92.3281C173.039 91.7422 173.477 91.0156 173.617 90.1484C173.758 89.2812 173.828 87.8594 173.828 85.8672V71.9688H178.914V85.1641C178.914 88.1797 178.773 90.3203 178.492 91.5703C178.211 92.8203 177.703 93.8672 176.969 94.7109C176.234 95.5547 175.25 96.2344 174.023 96.75C172.797 97.2656 171.188 97.5234 169.195 97.5234H169.203Z" fill="white"/>
<path d="M208.961 97.4531H202.891L199.242 92.0156C197.93 90.0312 197.031 88.7891 196.539 88.2969C196.047 87.8047 195.539 87.4609 195.016 87.2578C194.492 87.0625 193.305 86.9609 191.453 86.9609V97.4531H186.367V72.3281H197.031C199.719 72.3281 201.68 72.5547 202.906 73.0156C204.133 73.4687 205.109 74.2734 205.836 75.4219C206.562 76.5703 206.922 77.8906 206.922 79.3906C206.922 81.2891 206.367 82.8437 205.258 84.0547C204.148 85.2734 202.492 86.0469 200.289 86.3672C201.367 87 202.266 87.7031 202.992 88.4766C203.719 89.25 204.68 90.6172 205.867 92.5781L208.953 97.4531H208.961ZM195.211 82.9609C197.617 82.9609 199.133 82.8594 199.758 82.6641C200.375 82.4687 200.859 82.1094 201.195 81.5938C201.531 81.0781 201.703 80.4453 201.703 79.6953C201.703 78.8516 201.477 78.1719 201.016 77.6406C200.562 77.1172 199.922 76.7969 199.102 76.6797C198.68 76.6094 196.133 76.5781 191.453 76.5781V82.9609H195.211Z" fill="white"/>
<path d="M236.898 97.4531H231.391L229.18 91.7344H219.141L217.07 97.4531H211.703L221.492 72.3281H226.859L236.898 97.4531ZM227.594 87.5234L224.086 78.1875L220.719 87.5234H227.594Z" fill="white"/>
<path d="M241.703 97.4531V72.3281H246.789V97.4531H241.703Z" fill="white"/>
<path d="M276.336 97.4531H270.266L266.617 92.0156C265.305 90.0312 264.406 88.7891 263.914 88.2969C263.422 87.8047 262.914 87.4609 262.391 87.2578C261.867 87.0547 260.68 86.9609 258.828 86.9609V97.4531H253.742V72.3281H264.406C267.094 72.3281 269.055 72.5547 270.281 73.0156C271.508 73.4687 272.484 74.2734 273.211 75.4219C273.937 76.5703 274.297 77.8906 274.297 79.3906C274.297 81.2891 273.742 82.8437 272.633 84.0547C271.523 85.2734 269.867 86.0469 267.664 86.3672C268.742 87 269.641 87.7031 270.367 88.4766C271.094 89.25 272.055 90.6172 273.242 92.5781L276.328 97.4531H276.336ZM262.578 82.9609C264.984 82.9609 266.5 82.8594 267.125 82.6641C267.742 82.4687 268.227 82.1094 268.563 81.5938C268.898 81.0781 269.07 80.4453 269.07 79.6953C269.07 78.8516 268.844 78.1719 268.383 77.6406C267.922 77.1094 267.289 76.7969 266.469 76.6797C266.047 76.6094 263.5 76.5781 258.82 76.5781V82.9609H262.578Z" fill="white"/>
<path d="M304.266 97.4531H298.758L296.547 91.7344H286.508L284.437 97.4531H279.07L288.859 72.3281H294.227L304.266 97.4531ZM294.969 87.5234L291.461 78.1875L288.094 87.5234H294.969Z" fill="white"/>
<path d="M309.25 97.4531V72.3281H314.336V82.2266H324.266V72.3281H329.352V97.4531H324.266V86.4687H314.336V97.4531H309.25Z" fill="white"/>
<path d="M305.641 12.9688C305.086 11.9141 304.25 11.1563 303.133 10.6875C302.023 10.2188 300.617 9.98438 298.93 9.98438C297.766 9.98438 296.711 10.0703 295.75 10.2422C294.797 10.4062 294.094 10.5781 293.641 10.7422C293.531 11.1797 293.414 11.7422 293.289 12.4453C293.172 13.1484 293.062 13.9375 292.969 14.8125C292.875 15.6797 292.828 16.5859 292.828 17.5234C292.828 18.4609 292.867 19.3125 292.953 20.1406C292.984 20.4063 293.008 20.6562 293.047 20.8984H284.25C284.93 20.3203 285.531 19.6875 286.062 19.0313C286.805 18.1016 287.375 17.1719 287.766 16.2422C288.156 15.3125 288.352 14.4688 288.352 13.6953V12.0937C287.547 11.6484 286.695 11.2734 285.781 10.9688C284.875 10.6719 283.969 10.4375 283.07 10.2813C282.172 10.125 281.32 10.0391 280.539 10.0391C279.758 10.0391 278.93 10.125 278.023 10.2813C277.109 10.4375 276.203 10.6719 275.289 10.9688C274.383 11.2734 273.523 11.6484 272.719 12.0937V13.6953C272.719 14.4688 272.914 15.3125 273.312 16.2422C273.703 17.1719 274.266 18.1016 275.008 19.0313C275.539 19.6875 276.141 20.3125 276.82 20.8984H268.109V10.0391H261.75C260.156 10.0391 258.844 10.3125 257.812 10.8438C256.781 11.375 256.016 12.1719 255.516 13.2344C255.023 14.2969 254.773 15.6094 254.773 17.1875C254.773 18.7656 255.023 20.0625 255.516 21.0938C256.016 22.125 256.781 22.8984 257.812 23.3984C258.844 23.9063 260.156 24.1641 261.75 24.1641H275.844C277.305 24.1641 278.672 23.9297 279.945 23.4609C280.148 23.3906 280.344 23.3125 280.539 23.2187C280.734 23.3125 280.93 23.3906 281.125 23.4609C282.398 23.9297 283.773 24.1641 285.234 24.1641H306.469V17.2109C306.469 15.4297 306.195 14.0156 305.641 12.9688ZM264.336 20.8984H261.75C260.945 20.8984 260.305 20.8125 259.836 20.6484C259.367 20.4766 259.031 20.125 258.836 19.5938C258.641 19.0547 258.539 18.2578 258.539 17.1875C258.539 16.0625 258.648 15.2188 258.867 14.6719C259.086 14.1172 259.422 13.75 259.891 13.5703C260.359 13.3906 260.977 13.3047 261.75 13.3047H264.336V20.8984ZM283.078 17.4844C282.602 18.1094 282.047 18.6797 281.422 19.1953C281.141 19.4219 280.852 19.6328 280.547 19.8203C280.242 19.6328 279.945 19.4219 279.664 19.1953C279.031 18.6797 278.477 18.1094 278.008 17.4844C277.539 16.8516 277.164 16.2109 276.898 15.5547C276.68 15.0312 276.547 14.5391 276.5 14.0625C276.883 13.9141 277.266 13.7969 277.656 13.6953C278.68 13.4375 279.641 13.3047 280.539 13.3047C281.437 13.3047 282.422 13.4375 283.437 13.6953C283.828 13.7969 284.211 13.9219 284.594 14.0703C284.555 14.5391 284.422 15.0391 284.211 15.5547C283.938 16.2109 283.562 16.8516 283.078 17.4844ZM302.727 20.8984H296.813C296.758 20.5 296.711 20.0547 296.664 19.5781C296.602 18.8672 296.57 18.1797 296.57 17.5234C296.57 16.8125 296.602 16.0859 296.68 15.3437C296.75 14.6484 296.836 13.9922 296.93 13.375C297.586 13.2891 298.258 13.25 298.93 13.25C299.906 13.25 300.672 13.3672 301.219 13.6016C301.773 13.8359 302.164 14.2344 302.391 14.8125C302.617 15.3828 302.727 16.1719 302.727 17.1875V20.8984Z" fill="#ACC2EE"/>
<path d="M317.133 20.8984V21.1406C317.289 21.0859 317.43 21.0469 317.398 21.0078C317.336 20.9375 317.25 20.8984 317.133 20.8984ZM317.133 23.9219V24.1641C317.25 24.1641 317.336 24.125 317.398 24.0469C317.43 24.0156 317.289 23.9688 317.133 23.9219Z" fill="#ACC2EE"/>
<path d="M329.359 16.7344V24.1641H317.133C317.25 24.1641 317.336 24.125 317.398 24.0469C317.43 24.0156 317.289 23.9688 317.133 23.9219V24.1641H310.188V2.71094L313.93 1.92969V20.8984H317.133V21.1406C317.289 21.0859 317.43 21.0469 317.398 21.0078C317.336 20.9375 317.25 20.8984 317.133 20.8984H325.617V16.7344C325.617 15.6094 325.266 14.7578 324.562 14.1797C323.859 13.5937 322.75 13.3047 321.234 13.3047C320.797 13.3047 320.211 13.3359 319.461 13.4062C318.711 13.4688 317.891 13.5703 317.008 13.6953L316.648 10.7188C317.453 10.5312 318.273 10.3672 319.109 10.2422C319.937 10.1094 320.758 10.0391 321.57 10.0391C323.102 10.0391 324.453 10.3125 325.617 10.8438C326.781 11.375 327.695 12.1406 328.359 13.1328C329.023 14.1328 329.359 15.3281 329.359 16.7344Z" fill="#ACC2EE"/>
<path d="M317.133 20.8984V21.1406C317.289 21.0859 317.43 21.0469 317.398 21.0078C317.336 20.9375 317.25 20.8984 317.133 20.8984ZM317.133 23.9219V24.1641C317.25 24.1641 317.336 24.125 317.398 24.0469C317.43 24.0156 317.289 23.9688 317.133 23.9219Z" fill="#ACC2EE"/>
<path d="M322.934 25.3068L320.404 27.8369L322.851 30.2842L325.381 27.7541L322.934 25.3068Z" fill="#ACC2EE"/>
<path d="M221.078 44.8047C220.5 43.6719 219.633 42.8438 218.492 42.3281C217.344 41.8125 215.93 41.5547 214.242 41.5547C212.555 41.5547 211.172 41.8125 210.023 42.3281C208.883 42.8438 208.016 43.6719 207.437 44.8047C206.859 45.9375 206.562 47.4297 206.562 49.2891V55.6719H221.953V49.2891C221.953 47.4297 221.656 45.9375 221.078 44.8047ZM218.211 52.4141H210.336V49.375C210.336 48.25 210.445 47.3516 210.656 46.6875C210.875 46.0234 211.266 45.5469 211.836 45.25C212.414 44.9609 213.211 44.8203 214.242 44.8203C215.273 44.8203 216.102 44.9609 216.68 45.25C217.25 45.5469 217.648 46.0234 217.875 46.6875C218.102 47.3516 218.211 48.25 218.211 49.375V52.4141Z" fill="#ACC2EE"/>
<path d="M241.445 41.5547V55.6719H230.281V56.0938C230.281 57.3672 230.023 58.5 229.508 59.5C228.992 60.4922 228.273 61.2656 227.359 61.8203C226.437 62.3672 225.367 62.6484 224.148 62.6484C223.906 62.6484 223.648 62.6406 223.367 62.6172C223.086 62.6016 222.797 62.5703 222.492 62.5391L222.633 59.3281C222.93 59.3438 223.219 59.3672 223.492 59.3828C223.766 59.4063 223.961 59.4141 224.094 59.4141C224.828 59.4141 225.414 59.125 225.852 58.5391C226.297 57.9609 226.516 57.1406 226.516 56.0938V42.3359L230.281 41.5547V52.4141H237.711V42.3359L241.445 41.5547Z" fill="#ACC2EE"/>
<path d="M255.656 41.5547V56.0938C255.656 57.3672 255.398 58.5 254.883 59.5C254.367 60.4922 253.648 61.2656 252.727 61.8203C251.813 62.3672 250.742 62.6484 249.523 62.6484C249.281 62.6484 249.016 62.6406 248.734 62.6172C248.453 62.6016 248.164 62.5703 247.867 62.5391L248.008 59.3281C248.305 59.3438 248.594 59.3672 248.859 59.3828C249.133 59.4063 249.336 59.4141 249.469 59.4141C250.195 59.4141 250.781 59.125 251.227 58.5391C251.664 57.9609 251.883 57.1406 251.883 56.0938V42.3359L255.656 41.5547Z" fill="#ACC2EE"/>
<path d="M278.461 44.9297C277.922 43.6562 277.188 42.6406 276.273 41.875C275.352 41.1172 274.313 40.5781 273.164 40.2422C272.008 39.9219 270.82 39.7578 269.602 39.7578C268.727 39.7578 267.82 39.8203 266.891 39.9531C265.961 40.0781 265.078 40.2422 264.234 40.4297C263.391 40.6172 262.648 40.7969 262.008 40.9609L262.406 43.4922C263.063 43.4219 263.797 43.3516 264.609 43.2813C265.43 43.2188 266.25 43.1641 267.07 43.1172C267.898 43.0703 268.656 43.0469 269.352 43.0469C270.797 43.0469 271.969 43.2656 272.883 43.7031C273.789 44.1484 274.453 44.8516 274.875 45.8281C275.297 46.8047 275.508 48.1016 275.508 49.7109V52.4141H272.023V51C272.023 50.0859 271.797 49.2422 271.336 48.4766C270.875 47.7031 270.25 47.0937 269.461 46.6328C268.68 46.1719 267.789 45.9375 266.789 45.9375C265.789 45.9375 264.898 46.1719 264.094 46.6328C263.289 47.0937 262.656 47.7109 262.195 48.4844C261.734 49.2656 261.508 50.1016 261.508 51V52.4141H255.656V55.6719H279.281V49.7109C279.281 47.7969 279.008 46.2031 278.461 44.9297ZM264.516 52.4141V51C264.516 50.5391 264.617 50.1172 264.82 49.75C265.031 49.3906 265.305 49.0938 265.656 48.8672C266 48.6406 266.383 48.5312 266.789 48.5312C267.195 48.5312 267.578 48.6406 267.914 48.8672C268.258 49.0938 268.523 49.3906 268.734 49.75C268.938 50.1172 269.039 50.5391 269.039 51V52.4141H264.516Z" fill="#ACC2EE"/>
<path d="M305.023 52.4063L305.055 52.4141C305.055 52.4062 305.031 52.4063 305.023 52.4063Z" fill="#ACC2EE"/>
<path d="M311.75 41.5547V55.6719H303.789V55.7578C303.789 57.1094 303.492 58.2969 302.891 59.3281C302.289 60.3594 301.437 61.1719 300.344 61.7578C299.25 62.3516 297.938 62.6484 296.422 62.6484H284.555C283.336 62.6484 282.203 62.4766 281.164 62.125C280.969 62.0625 280.781 61.9922 280.594 61.9141L282.008 58.9219C282.734 59.2266 283.578 59.3828 284.555 59.3828H296.422C297.641 59.3828 298.547 59.0781 299.148 58.4531C299.75 57.8359 300.047 56.9375 300.047 55.7578V55.6719H298.813C297.945 55.6719 297.117 55.5781 296.32 55.3906C295.875 55.2891 295.445 55.1328 295.023 54.9297L297.141 52.1875C297.336 52.2656 297.547 52.3203 297.781 52.3516C298.078 52.3906 298.414 52.4063 298.813 52.4063H305.023L307.977 52.4141V42.3359L311.75 41.5547Z" fill="#ACC2EE"/>
<path d="M309.875 57.8594L307.344 60.3906L309.797 62.8359L312.32 60.3047L309.875 57.8594Z" fill="#ACC2EE"/>
<path d="M316.328 55.6719V36.5703L320.07 35.7891V55.6719H316.328Z" fill="#ACC2EE"/>
<path d="M245.458 46.5788L242.928 49.1089L245.375 51.5561L247.905 49.026L245.458 46.5788Z" fill="#ACC2EE"/>
<path d="M245.457 50.796L242.927 53.3262L245.374 55.7734L247.904 53.2433L245.457 50.796Z" fill="#ACC2EE"/>
</g>
<defs>
<clipPath id="clip0_109_29">
<rect width="329.469" height="100" fill="white"/>
</clipPath>
</defs>
</svg>
