<svg width="213" height="213" viewBox="0 0 213 213" fill="none" xmlns="http://www.w3.org/2000/svg">
<g clip-path="url(#clip0_52_129)">
<path d="M78.2919 134.478V178.805L78.6373 179.15H134.248V168.443L133.902 168.097H89.5751V134.478H100.628V156.469L100.974 156.814H145.416L145.761 157.159V190.318L145.416 190.664H22.6816L22.3362 190.318V168.673C22.3362 168.381 21.6155 168.127 21.3115 168.086C20.3467 167.957 11.9027 167.915 11.4997 168.199L11.3155 168.475L11.2832 201.717H44.6724V212.655L44.327 213H0.345405L0 212.655V157.159L0.345405 156.814H55.6103L55.9557 157.159V179.15H67.0086V134.823L67.354 134.478H78.2919ZM33.3892 168.673V178.805L33.7346 179.15H44.327L44.6724 178.805V168.673C44.6724 168.634 44.3178 168.268 44.2073 168.217C43.7214 167.989 35.7034 167.978 34.6419 168.083C34.2274 168.125 33.5227 168.192 33.3892 168.673Z" fill="#0044CB" fill-opacity="0.2"/>
<path d="M11.053 53.8832L11.2832 134.478H21.9908L22.3362 134.132V100.858H33.3892V111.566C33.3892 112.604 35.9866 111.884 36.4978 111.891C37.214 111.902 37.838 112.142 38.5588 112.151C40.5621 112.178 42.729 112.277 44.6724 111.909V89.8031H78.2919V111.564C78.2919 111.605 78.8261 112.139 78.8676 112.139H133.902L134.248 111.794V101.086H90.1508C90.0748 101.086 89.8008 100.782 89.5751 100.856V78.5199H100.628V89.2274C100.628 90.3005 104.156 89.5774 104.877 89.5613C117.175 89.2919 131.652 88.8659 143.813 89.5613C144.485 89.6005 145.098 89.7732 145.761 89.8031V123.077L145.416 123.423H55.9557V145.413L55.6103 145.759H45.0178L44.6724 145.413V123.768L44.327 123.423H33.6195C33.6931 123.648 33.3892 123.922 33.3892 123.998V145.759H0.345405L0 145.413V54.2286L0.345405 53.8832H11.053ZM55.9557 111.911C56.8998 112.351 57.6436 111.918 58.5923 111.9C60.8075 111.858 63.0756 111.842 65.2908 111.9C65.6547 111.909 67.0086 112.376 67.0086 111.796V101.204L66.4882 100.902L55.9557 101.089V111.911Z" fill="#0044CB" fill-opacity="0.2"/>
<path d="M145.761 22.1059C145.987 22.0323 146.261 22.3362 146.337 22.3362H156.469L156.814 21.9908V0H168.097V21.7605C168.097 21.8365 168.401 22.1106 168.328 22.3362H178.805C178.846 22.3362 179.381 21.802 179.381 21.7605V0H190.434V21.7605C190.434 21.7997 190.788 22.1658 190.899 22.2165C191.438 22.4698 199.301 22.4375 200.462 22.3454C200.906 22.3109 201.295 22.2096 201.717 22.1036V0H212.655L213 0.345405V33.0438C213 33.1198 212.696 33.3938 212.77 33.6195H168.443L168.097 33.9649V66.8935L167.752 67.2389H157.39C157.314 67.2389 157.04 66.935 156.814 67.0086V33.6195H134.823C134.747 33.6195 134.473 33.3155 134.248 33.3892V11.3984L133.902 11.053H123.77C123.694 11.053 123.42 11.3569 123.195 11.2832V44.327L123.54 44.6724H145.416L145.761 45.0178V78.1768L145.416 78.5222H111.911V0H145.416L145.761 0.345405V22.1059ZM134.248 67.0086V56.3011L133.902 55.9557H123.54L123.195 56.3011V67.0086H134.248Z" fill="#0044CB" fill-opacity="0.2"/>
<path d="M33.3892 0V55.38C33.3892 55.4191 33.7438 55.7853 33.8543 55.8359C34.3932 56.0892 42.2569 56.057 43.4175 55.9649C43.8619 55.9303 44.251 55.829 44.6724 55.7231V0H55.9557V66.6632L56.3011 67.0086H67.0086V0.345405L67.354 0H78.2919V78.5222H45.0178L44.6724 78.1768V67.2389H22.6816L22.3362 66.8935V45.2481C22.3362 45.1721 22.0323 44.8981 22.1059 44.6724H0V0H33.3892ZM22.1059 11.053H11.6286C10.9102 11.053 11.2855 12.2711 11.2579 12.5221C10.6845 17.7078 10.6293 26.8841 11.0415 32.1319C11.076 32.5763 11.1773 32.9655 11.2832 33.3869H21.9908L22.3362 33.0415V11.6286C22.3362 11.5527 22.0323 11.2786 22.1059 11.053Z" fill="#0044CB" fill-opacity="0.2"/>
<path d="M190.434 44.6724V123.079L190.088 123.425H168.443L168.097 123.77V145.761H112.257L111.911 145.416V134.823L112.257 134.478H156.814V78.8676L157.159 78.5222H168.097V111.566C168.3 111.895 168.556 111.884 168.892 111.923C171.241 112.199 174.718 111.914 177.202 111.9C177.536 111.9 179.381 112.347 179.381 111.566V44.6724H190.434Z" fill="#0044CB" fill-opacity="0.2"/>
<path d="M190.434 134.478L190.088 190.664H168.443L168.097 191.009V212.655L167.752 213H101.204C101.128 213 100.854 212.696 100.628 212.77V202.062L100.974 201.717H156.814V157.044C157.04 157.118 157.314 156.814 157.39 156.814H167.752L168.097 157.159V178.805L168.443 179.15H179.035L179.381 178.805V134.478H190.434Z" fill="#0044CB" fill-opacity="0.2"/>
<path d="M179.381 201.717H201.371L201.717 201.371V145.07H212.655L213 145.416V212.655L212.655 213H179.726L179.381 212.655V201.717Z" fill="#0044CB" fill-opacity="0.2"/>
<path d="M201.717 134.478V67.3541L202.062 67.0087H212.655L213 67.3541V134.132L212.655 134.478H201.717Z" fill="#0044CB" fill-opacity="0.2"/>
<path d="M100.628 0V66.8935L100.283 67.2389H89.9205L89.5751 66.8935V0H100.628Z" fill="#0044CB" fill-opacity="0.2"/>
<path d="M55.9557 201.717H89.2297L89.5751 202.062V212.655L89.2297 213H56.3011L55.9557 212.655V201.717Z" fill="#0044CB" fill-opacity="0.2"/>
<path d="M202.062 44.6724H212.655L213 45.0178V55.6103L212.655 55.9557H202.062L201.717 55.6103V45.0178L202.062 44.6724Z" fill="#0044CB" fill-opacity="0.2"/>
<path d="M33.3892 78.5222H22.3362V89.8054H33.3892V78.5222Z" fill="#0044CB" fill-opacity="0.2"/>
</g>
<defs>
<clipPath id="clip0_52_129">
<rect width="213" height="213" fill="white"/>
</clipPath>
</defs>
</svg>
